<svg width="74" height="107" viewBox="0 0 74 107" fill="none" xmlns="http://www.w3.org/2000/svg">
<path d="M15.4166 8.91663H58.5833C59.401 8.91663 60.1853 9.38634 60.7635 10.2224C61.3417 11.0585 61.6666 12.1925 61.6666 13.375V98.7208C61.6669 99.1194 61.5934 99.5109 61.4535 99.8544C61.3137 100.198 61.1127 100.481 60.8715 100.674C60.6303 100.867 60.3578 100.963 60.0822 100.952C59.8066 100.941 59.5382 100.823 59.3047 100.611L36.9999 80.3837L14.6951 100.607C14.4619 100.819 14.1937 100.936 13.9184 100.947C13.6431 100.959 13.3708 100.863 13.1297 100.671C12.8886 100.478 12.6875 100.196 12.5475 99.8528C12.4074 99.5099 12.3335 99.1191 12.3333 98.7208V13.375C12.3333 12.1925 12.6581 11.0585 13.2363 10.2224C13.8146 9.38634 14.5988 8.91663 15.4166 8.91663Z" fill="#1B2632"/>
</svg>
