<svg xmlns="http://www.w3.org/2000/svg" xmlns:xlink="http://www.w3.org/1999/xlink" width="500" zoomAndPan="magnify" viewBox="0 0 375 374.999991" height="500" preserveAspectRatio="xMidYMid meet" version="1.0"><defs><g/></defs><g fill="#e6c068" fill-opacity="1"><g transform="translate(25.190932, 177.665506)"><g><path d="M 87.53125 80.09375 L 87.53125 80.203125 C 87.238281 80.273438 86.945312 80.3125 86.65625 80.3125 C 86 80.3125 85.34375 80.054688 84.6875 79.546875 C 83.375 78.597656 82.660156 77.578125 82.546875 76.484375 C 82.441406 75.390625 82.460938 74.332031 82.609375 73.3125 L 82.609375 72.765625 C 83.265625 67.515625 84.226562 62.40625 85.5 57.4375 C 86.78125 52.476562 88.113281 47.59375 89.5 42.78125 L 89.71875 41.90625 C 90.96875 37.601562 92.703125 32.382812 94.921875 26.25 C 97.148438 20.125 99.664062 13.488281 102.46875 6.34375 C 105.28125 -0.800781 108.195312 -8.09375 111.21875 -15.53125 C 114.25 -22.976562 117.238281 -30.238281 120.1875 -37.3125 C 123.144531 -44.382812 125.847656 -50.894531 128.296875 -56.84375 C 130.742188 -62.789062 132.734375 -67.769531 134.265625 -71.78125 L 137.984375 -81.078125 L 138.859375 -83.484375 C 139.222656 -84.359375 139.585938 -85.25 139.953125 -86.15625 C 140.316406 -87.070312 140.644531 -88.003906 140.9375 -88.953125 C 141.59375 -91.003906 142.066406 -92.976562 142.359375 -94.875 C 142.359375 -95.164062 142.359375 -95.601562 142.359375 -96.1875 C 142.359375 -96.769531 142.066406 -97.207031 141.484375 -97.5 C 141.265625 -97.570312 141.007812 -97.609375 140.71875 -97.609375 C 140.0625 -97.609375 139.421875 -97.40625 138.796875 -97 C 138.179688 -96.601562 137.617188 -96.222656 137.109375 -95.859375 C 136.742188 -95.566406 136.488281 -95.382812 136.34375 -95.3125 C 135.03125 -94.4375 133.734375 -93.503906 132.453125 -92.515625 C 131.179688 -91.535156 129.925781 -90.53125 128.6875 -89.5 L 127.8125 -88.734375 C 125.90625 -87.054688 124.054688 -85.304688 122.265625 -83.484375 C 120.484375 -81.660156 118.753906 -79.835938 117.078125 -78.015625 L 116.75 -77.6875 C 115.582031 -76.445312 113.941406 -74.675781 111.828125 -72.375 C 109.710938 -70.082031 107.304688 -67.492188 104.609375 -64.609375 C 101.910156 -61.734375 99.140625 -58.742188 96.296875 -55.640625 C 93.453125 -52.535156 90.710938 -49.539062 88.078125 -46.65625 C 85.453125 -43.78125 83.082031 -41.191406 80.96875 -38.890625 C 78.851562 -36.597656 77.25 -34.832031 76.15625 -33.59375 C 73.75 -30.894531 71.34375 -28.195312 68.9375 -25.5 C 66.53125 -22.800781 64.125 -20.097656 61.71875 -17.390625 C 60.84375 -16.441406 59.894531 -15.53125 58.875 -14.65625 C 57.851562 -13.78125 56.867188 -12.941406 55.921875 -12.140625 C 55.035156 -11.484375 54.265625 -10.898438 53.609375 -10.390625 C 52.734375 -9.585938 51.820312 -9.1875 50.875 -9.1875 C 50.289062 -9.1875 49.671875 -9.367188 49.015625 -9.734375 C 47.410156 -10.753906 46.71875 -12.503906 46.9375 -14.984375 C 47.226562 -17.097656 47.535156 -19.234375 47.859375 -21.390625 C 48.191406 -23.546875 48.539062 -25.644531 48.90625 -27.6875 L 49.34375 -29.765625 C 49.488281 -30.859375 49.671875 -31.914062 49.890625 -32.9375 C 50.109375 -33.957031 50.328125 -35.015625 50.546875 -36.109375 C 51.054688 -38.878906 51.566406 -41.703125 52.078125 -44.578125 C 52.585938 -47.460938 52.914062 -50.398438 53.0625 -53.390625 C 53.132812 -55.078125 53.023438 -56.648438 52.734375 -58.109375 C 52.585938 -58.617188 52.457031 -59.070312 52.34375 -59.46875 C 52.238281 -59.875 52.113281 -60.296875 51.96875 -60.734375 C 51.601562 -61.390625 51.09375 -61.71875 50.4375 -61.71875 C 49.707031 -61.71875 48.941406 -61.390625 48.140625 -60.734375 C 47.335938 -60.078125 46.550781 -59.347656 45.78125 -58.546875 C 45.019531 -57.742188 44.457031 -57.085938 44.09375 -56.578125 C 39.132812 -50.441406 34.773438 -43.851562 31.015625 -36.8125 C 27.265625 -29.78125 23.710938 -22.722656 20.359375 -15.640625 C 20.066406 -15.054688 19.609375 -14.144531 18.984375 -12.90625 C 18.359375 -11.664062 17.71875 -10.390625 17.0625 -9.078125 C 16.40625 -7.765625 15.859375 -6.632812 15.421875 -5.6875 C 14.984375 -4.738281 14.765625 -4.265625 14.765625 -4.265625 C 13.816406 -2.367188 12.882812 -0.492188 11.96875 1.359375 C 11.0625 3.222656 10.132812 5.101562 9.1875 7 C 9.039062 7.144531 8.945312 7.289062 8.90625 7.4375 C 8.875 7.582031 8.820312 7.726562 8.75 7.875 C 8.53125 8.3125 8.3125 8.75 8.09375 9.1875 C 7.875 9.625 7.582031 9.953125 7.21875 10.171875 C 7 10.316406 6.78125 10.390625 6.5625 10.390625 C 6.125 10.390625 5.757812 10.097656 5.46875 9.515625 C 5.25 9.078125 5.191406 8.601562 5.296875 8.09375 C 5.410156 7.582031 5.578125 7.109375 5.796875 6.671875 C 5.941406 6.378906 6.050781 6.160156 6.125 6.015625 C 8.3125 -0.328125 10.789062 -6.910156 13.5625 -13.734375 C 16.332031 -20.554688 19.503906 -27.359375 23.078125 -34.140625 C 26.660156 -40.921875 30.785156 -47.484375 35.453125 -53.828125 C 38.585938 -58.140625 41.722656 -61.390625 44.859375 -63.578125 C 46.460938 -64.597656 47.921875 -65.109375 49.234375 -65.109375 C 50.253906 -65.109375 51.238281 -64.851562 52.1875 -64.34375 C 53.644531 -63.539062 54.519531 -62.5 54.8125 -61.21875 C 55.113281 -59.945312 55.265625 -58.582031 55.265625 -57.125 C 55.265625 -54.34375 55.097656 -51.675781 54.765625 -49.125 C 54.429688 -46.570312 54.117188 -44.203125 53.828125 -42.015625 C 53.390625 -39.679688 52.953125 -37.363281 52.515625 -35.0625 C 52.078125 -32.769531 51.640625 -30.457031 51.203125 -28.125 C 50.910156 -26.882812 50.632812 -25.660156 50.375 -24.453125 C 50.125 -23.253906 49.890625 -22.035156 49.671875 -20.796875 L 49.5625 -20.25 C 49.488281 -19.664062 49.394531 -19.078125 49.28125 -18.484375 C 49.175781 -17.898438 49.125 -17.316406 49.125 -16.734375 C 49.050781 -15.785156 49.03125 -14.910156 49.0625 -14.109375 C 49.101562 -13.304688 49.378906 -12.722656 49.890625 -12.359375 L 50 -12.25 L 50.546875 -12.03125 C 50.984375 -12.03125 51.4375 -12.191406 51.90625 -12.515625 C 52.382812 -12.847656 52.84375 -13.195312 53.28125 -13.5625 L 53.609375 -13.890625 C 55.585938 -15.421875 57.597656 -17.25 59.640625 -19.375 C 60.804688 -20.6875 61.9375 -22 63.03125 -23.3125 C 64.125 -24.625 65.179688 -25.972656 66.203125 -27.359375 C 66.859375 -28.085938 67.476562 -28.832031 68.0625 -29.59375 C 68.644531 -30.363281 69.265625 -31.113281 69.921875 -31.84375 C 72.035156 -34.394531 74.625 -37.421875 77.6875 -40.921875 C 80.75 -44.421875 84.066406 -48.160156 87.640625 -52.140625 C 91.222656 -56.117188 94.910156 -60.148438 98.703125 -64.234375 C 102.492188 -68.316406 106.210938 -72.253906 109.859375 -76.046875 C 113.503906 -79.835938 116.929688 -83.300781 120.140625 -86.4375 C 123.347656 -89.582031 126.125 -92.140625 128.46875 -94.109375 C 130 -95.421875 131.582031 -96.675781 133.21875 -97.875 C 134.863281 -99.082031 136.671875 -100.085938 138.640625 -100.890625 C 139.515625 -101.253906 140.28125 -101.4375 140.9375 -101.4375 C 142.03125 -101.4375 143.050781 -101.035156 144 -100.234375 C 145.675781 -98.921875 146.441406 -97.132812 146.296875 -94.875 C 146.148438 -92.6875 145.800781 -90.640625 145.25 -88.734375 C 144.707031 -86.835938 144.144531 -85.125 143.5625 -83.59375 C 141.882812 -79 140.132812 -74.421875 138.3125 -69.859375 C 136.488281 -65.304688 134.703125 -60.804688 132.953125 -56.359375 C 131.859375 -53.648438 130.34375 -50.035156 128.40625 -45.515625 C 126.46875 -40.992188 124.273438 -35.90625 121.828125 -30.25 C 119.390625 -24.601562 116.894531 -18.75 114.34375 -12.6875 C 111.789062 -6.632812 109.328125 -0.75 106.953125 4.96875 C 104.585938 10.695312 102.507812 15.878906 100.71875 20.515625 C 98.9375 25.148438 97.609375 28.890625 96.734375 31.734375 L 95.203125 36.546875 C 93.523438 42.234375 91.863281 47.992188 90.21875 53.828125 C 88.570312 59.671875 87.3125 65.65625 86.4375 71.78125 C 86.363281 72 86.304688 72.195312 86.265625 72.375 C 86.234375 72.5625 86.179688 72.765625 86.109375 72.984375 C 85.890625 73.785156 85.796875 74.675781 85.828125 75.65625 C 85.867188 76.644531 86.546875 77.6875 87.859375 78.78125 C 88.148438 78.925781 88.296875 79.109375 88.296875 79.328125 C 88.296875 79.691406 88.039062 79.945312 87.53125 80.09375 Z M 87.53125 80.09375 "/></g></g></g><g fill="#e6c068" fill-opacity="1"><g transform="translate(152.328728, 177.665506)"><g><path d="M 9.515625 -33.921875 C 10.535156 -33.335938 10.953125 -32.71875 10.765625 -32.0625 C 10.585938 -31.40625 10.425781 -30.820312 10.28125 -30.3125 C 9.257812 -26.957031 8.109375 -23.632812 6.828125 -20.34375 C 5.554688 -17.0625 4.300781 -13.742188 3.0625 -10.390625 C 2.113281 -7.765625 1.203125 -5.285156 0.328125 -2.953125 C -0.472656 -0.984375 -1.273438 0.960938 -2.078125 2.890625 C -2.878906 4.828125 -3.679688 6.78125 -4.484375 8.75 C -7.328125 15.101562 -10.335938 21.394531 -13.515625 27.625 C -16.691406 33.863281 -20.429688 39.71875 -24.734375 45.1875 C -25.535156 46.207031 -26.410156 47.191406 -27.359375 48.140625 C -28.304688 49.085938 -29.398438 49.851562 -30.640625 50.4375 C -33.410156 51.675781 -35.234375 50.582031 -36.109375 47.15625 C -36.398438 45.84375 -36.378906 44.617188 -36.046875 43.484375 C -35.722656 42.359375 -35.34375 41.25 -34.90625 40.15625 C -32.9375 35.414062 -30.472656 31.039062 -27.515625 27.03125 C -24.566406 23.019531 -21.300781 19.296875 -17.71875 15.859375 C -14.070312 12.503906 -11.207031 8.65625 -9.125 4.3125 C -7.050781 -0.0195312 -5.140625 -4.445312 -3.390625 -8.96875 C -2.003906 -12.394531 -0.65625 -15.820312 0.65625 -19.25 C 1.96875 -22.6875 3.28125 -26.117188 4.59375 -29.546875 C 4.882812 -30.128906 5.15625 -30.675781 5.40625 -31.1875 C 5.664062 -31.695312 5.976562 -32.207031 6.34375 -32.71875 C 6.632812 -33.300781 7.035156 -33.753906 7.546875 -34.078125 C 8.054688 -34.410156 8.710938 -34.359375 9.515625 -33.921875 Z M -22.546875 33.59375 C -21.160156 31.039062 -19.878906 28.414062 -18.703125 25.71875 C -17.535156 23.019531 -16.367188 20.316406 -15.203125 17.609375 C -15.421875 18.128906 -15.859375 18.625 -16.515625 19.09375 C -17.171875 19.570312 -17.71875 20.03125 -18.15625 20.46875 C -18.675781 20.976562 -19.191406 21.488281 -19.703125 22 C -20.210938 22.507812 -20.6875 23.054688 -21.125 23.640625 C -22.144531 24.660156 -23.128906 25.734375 -24.078125 26.859375 C -25.023438 27.992188 -25.9375 29.179688 -26.8125 30.421875 C -27.613281 31.585938 -28.414062 32.769531 -29.21875 33.96875 C -30.019531 35.175781 -30.710938 36.4375 -31.296875 37.75 C -31.660156 38.550781 -32.039062 39.351562 -32.4375 40.15625 C -32.84375 40.957031 -33.15625 41.796875 -33.375 42.671875 C -33.519531 43.328125 -33.460938 44.164062 -33.203125 45.1875 C -32.953125 46.207031 -32.316406 46.535156 -31.296875 46.171875 C -30.128906 45.734375 -29.269531 44.96875 -28.71875 43.875 C -28.175781 42.78125 -27.613281 41.757812 -27.03125 40.8125 C -26.300781 39.570312 -25.535156 38.367188 -24.734375 37.203125 C -23.929688 36.035156 -23.203125 34.832031 -22.546875 33.59375 Z M 14.109375 -43.65625 C 14.546875 -42.269531 14.597656 -41.140625 14.265625 -40.265625 C 13.941406 -39.390625 13.085938 -38.878906 11.703125 -38.734375 C 10.535156 -38.660156 9.550781 -38.988281 8.75 -39.71875 C 7.945312 -40.445312 7.398438 -41.359375 7.109375 -42.453125 C 6.742188 -43.910156 6.816406 -45.113281 7.328125 -46.0625 C 7.835938 -47.007812 8.820312 -47.554688 10.28125 -47.703125 C 11.738281 -47.773438 12.664062 -47.335938 13.0625 -46.390625 C 13.46875 -45.441406 13.816406 -44.53125 14.109375 -43.65625 Z M 14.109375 -43.65625 "/></g></g></g><g fill="#e6c068" fill-opacity="1"><g transform="translate(166.880635, 177.665506)"><g><path d="M 38.078125 -17.390625 C 38.296875 -17.242188 38.40625 -16.914062 38.40625 -16.40625 C 38.40625 -15.894531 38.09375 -15.421875 37.46875 -14.984375 C 36.851562 -14.546875 36.363281 -14.179688 36 -13.890625 C 34.757812 -12.796875 33.484375 -11.738281 32.171875 -10.71875 C 30.859375 -9.695312 29.546875 -8.710938 28.234375 -7.765625 C 25.460938 -5.796875 22.523438 -4.046875 19.421875 -2.515625 C 16.316406 -0.984375 13.015625 0.21875 9.515625 1.09375 C 8.054688 1.53125 6.523438 1.75 4.921875 1.75 C 3.316406 1.75 1.710938 1.019531 0.109375 -0.4375 C -1.492188 -1.820312 -2.382812 -3.296875 -2.5625 -4.859375 C -2.75 -6.429688 -2.625 -7.945312 -2.1875 -9.40625 C -0.875 -14.363281 0.984375 -18.992188 3.390625 -23.296875 C 5.796875 -27.609375 8.675781 -31.585938 12.03125 -35.234375 C 12.394531 -35.742188 12.847656 -36.21875 13.390625 -36.65625 C 13.941406 -37.09375 14.691406 -36.945312 15.640625 -36.21875 C 16.660156 -35.414062 16.988281 -34.703125 16.625 -34.078125 C 16.257812 -33.460938 15.929688 -32.898438 15.640625 -32.390625 C 13.304688 -28.671875 11.046875 -24.945312 8.859375 -21.21875 C 6.671875 -17.5 4.738281 -13.597656 3.0625 -9.515625 C 2.769531 -8.785156 2.40625 -8.019531 1.96875 -7.21875 C 1.53125 -6.414062 1.3125 -5.59375 1.3125 -4.75 C 1.3125 -3.914062 1.710938 -3.097656 2.515625 -2.296875 C 3.828125 -0.910156 5.285156 -0.328125 6.890625 -0.546875 C 8.492188 -0.765625 9.988281 -1.019531 11.375 -1.3125 C 14.144531 -1.96875 16.734375 -2.953125 19.140625 -4.265625 C 21.554688 -5.578125 23.859375 -7.035156 26.046875 -8.640625 C 26.335938 -8.859375 27.066406 -9.476562 28.234375 -10.5 C 29.398438 -11.519531 30.675781 -12.613281 32.0625 -13.78125 C 33.445312 -14.945312 34.722656 -15.894531 35.890625 -16.625 C 37.054688 -17.351562 37.785156 -17.609375 38.078125 -17.390625 Z M 20.46875 -41.359375 C 18.78125 -41.210938 17.71875 -41.976562 17.28125 -43.65625 C 16.914062 -45.113281 17.0625 -46.148438 17.71875 -46.765625 C 18.382812 -47.390625 19.335938 -47.738281 20.578125 -47.8125 C 21.453125 -47.882812 22.21875 -47.703125 22.875 -47.265625 C 23.53125 -46.828125 24.003906 -46.023438 24.296875 -44.859375 C 24.367188 -43.691406 24.039062 -42.851562 23.3125 -42.34375 C 22.582031 -41.832031 21.632812 -41.503906 20.46875 -41.359375 Z M 20.46875 -41.359375 "/></g></g></g><g fill="#e6c068" fill-opacity="1"><g transform="translate(171.975633, 221.897804)"><g><path d="M 1.515625 -9.21875 C 1.515625 -11.925781 2.4375 -14.234375 4.28125 -16.140625 C 6.132812 -18.046875 8.335938 -19 10.890625 -19 C 11.671875 -19 12.410156 -18.851562 13.109375 -18.5625 C 13.816406 -18.28125 14.332031 -18.015625 14.65625 -17.765625 C 14.976562 -17.515625 15.375 -17.15625 15.84375 -16.6875 L 17.203125 -18.671875 C 17.335938 -18.890625 17.476562 -19 17.625 -19 C 17.769531 -19 17.851562 -18.957031 17.875 -18.875 C 17.90625 -18.789062 17.921875 -18.617188 17.921875 -18.359375 L 17.921875 -11.96875 C 17.921875 -11.675781 17.898438 -11.492188 17.859375 -11.421875 C 17.828125 -11.347656 17.703125 -11.3125 17.484375 -11.3125 C 17.316406 -11.3125 17.210938 -11.335938 17.171875 -11.390625 C 17.128906 -11.441406 17.09375 -11.570312 17.0625 -11.78125 C 16.78125 -13.71875 16.101562 -15.265625 15.03125 -16.421875 C 13.957031 -17.578125 12.675781 -18.15625 11.1875 -18.15625 C 10.757812 -18.15625 10.304688 -18.109375 9.828125 -18.015625 C 9.347656 -17.921875 8.765625 -17.6875 8.078125 -17.3125 C 7.390625 -16.945312 6.78125 -16.457031 6.25 -15.84375 C 5.71875 -15.238281 5.257812 -14.359375 4.875 -13.203125 C 4.488281 -12.046875 4.296875 -10.707031 4.296875 -9.1875 C 4.296875 -7.675781 4.488281 -6.34375 4.875 -5.1875 C 5.257812 -4.03125 5.71875 -3.148438 6.25 -2.546875 C 6.78125 -1.941406 7.390625 -1.457031 8.078125 -1.09375 C 8.765625 -0.726562 9.347656 -0.492188 9.828125 -0.390625 C 10.316406 -0.285156 10.78125 -0.234375 11.21875 -0.234375 C 12.757812 -0.234375 14.117188 -0.78125 15.296875 -1.875 C 16.484375 -2.976562 17.132812 -4.453125 17.25 -6.296875 C 17.269531 -6.390625 17.28125 -6.453125 17.28125 -6.484375 C 17.28125 -6.523438 17.285156 -6.566406 17.296875 -6.609375 C 17.316406 -6.660156 17.347656 -6.691406 17.390625 -6.703125 C 17.441406 -6.722656 17.5 -6.734375 17.5625 -6.734375 C 17.800781 -6.734375 17.921875 -6.582031 17.921875 -6.28125 C 17.921875 -4.570312 17.265625 -3 15.953125 -1.5625 C 14.640625 -0.125 12.953125 0.59375 10.890625 0.59375 C 8.328125 0.59375 6.125 -0.351562 4.28125 -2.25 C 2.4375 -4.144531 1.515625 -6.46875 1.515625 -9.21875 Z M 1.515625 -9.21875 "/></g></g></g><g fill="#e6c068" fill-opacity="1"><g transform="translate(200.968715, 221.897804)"><g><path d="M 0.890625 0 L 0.890625 -0.828125 L 1.546875 -0.828125 C 2.515625 -0.828125 3.109375 -0.90625 3.328125 -1.0625 C 3.554688 -1.226562 3.671875 -1.578125 3.671875 -2.109375 L 3.671875 -16.3125 C 3.671875 -16.820312 3.554688 -17.15625 3.328125 -17.3125 C 3.097656 -17.476562 2.503906 -17.5625 1.546875 -17.5625 L 0.890625 -17.5625 L 0.890625 -18.40625 C 1.523438 -18.351562 2.890625 -18.328125 4.984375 -18.328125 C 7.359375 -18.328125 8.867188 -18.351562 9.515625 -18.40625 L 9.515625 -17.5625 L 8.625 -17.5625 C 7.800781 -17.5625 7.195312 -17.507812 6.8125 -17.40625 C 6.4375 -17.300781 6.21875 -17.175781 6.15625 -17.03125 C 6.09375 -16.882812 6.0625 -16.632812 6.0625 -16.28125 L 6.0625 -1.90625 C 6.0625 -1.4375 6.128906 -1.140625 6.265625 -1.015625 C 6.398438 -0.890625 6.773438 -0.828125 7.390625 -0.828125 L 9.59375 -0.828125 C 10.507812 -0.828125 11.296875 -0.960938 11.953125 -1.234375 C 12.609375 -1.503906 13.109375 -1.8125 13.453125 -2.15625 C 13.804688 -2.5 14.097656 -2.992188 14.328125 -3.640625 C 14.566406 -4.285156 14.722656 -4.8125 14.796875 -5.21875 C 14.867188 -5.632812 14.941406 -6.210938 15.015625 -6.953125 L 15.6875 -6.953125 L 14.9375 0 Z M 0.890625 0 "/></g></g></g><g fill="#e6c068" fill-opacity="1"><g transform="translate(227.356461, 221.897804)"><g><path d="M 0.875 0 L 0.875 -0.828125 C 2.46875 -0.859375 3.46875 -1.460938 3.875 -2.640625 L 9.46875 -18.75 C 9.53125 -18.96875 9.601562 -19.113281 9.6875 -19.1875 C 9.769531 -19.257812 9.910156 -19.296875 10.109375 -19.296875 C 10.210938 -19.296875 10.296875 -19.285156 10.359375 -19.265625 C 10.429688 -19.242188 10.488281 -19.203125 10.53125 -19.140625 C 10.570312 -19.085938 10.597656 -19.039062 10.609375 -19 C 10.628906 -18.96875 10.664062 -18.882812 10.71875 -18.75 L 16.546875 -1.90625 C 16.679688 -1.457031 16.894531 -1.164062 17.1875 -1.03125 C 17.476562 -0.894531 18.03125 -0.828125 18.84375 -0.828125 L 19.3125 -0.828125 L 19.3125 0 C 18.1875 -0.0507812 17.015625 -0.078125 15.796875 -0.078125 C 13.859375 -0.078125 12.5625 -0.0507812 11.90625 0 L 11.90625 -0.828125 C 13.394531 -0.828125 14.140625 -1.097656 14.140625 -1.640625 C 14.140625 -1.679688 14.113281 -1.8125 14.0625 -2.03125 L 12.640625 -6.140625 L 5.984375 -6.140625 L 4.734375 -2.625 C 4.703125 -2.550781 4.6875 -2.414062 4.6875 -2.21875 C 4.6875 -1.832031 4.859375 -1.503906 5.203125 -1.234375 C 5.554688 -0.960938 6.0625 -0.828125 6.71875 -0.828125 L 6.71875 0 C 4.988281 -0.0507812 3.953125 -0.078125 3.609375 -0.078125 C 3.015625 -0.078125 2.101562 -0.0507812 0.875 0 Z M 6.28125 -6.96875 L 12.34375 -6.96875 L 9.296875 -15.734375 Z M 6.28125 -6.96875 "/></g></g></g><g fill="#e6c068" fill-opacity="1"><g transform="translate(257.112722, 221.897804)"><g><path d="M 1.515625 -0.046875 L 1.515625 -5.453125 C 1.515625 -5.648438 1.519531 -5.785156 1.53125 -5.859375 C 1.539062 -5.929688 1.570312 -5.992188 1.625 -6.046875 C 1.675781 -6.097656 1.753906 -6.125 1.859375 -6.125 C 2.054688 -6.125 2.164062 -6.03125 2.1875 -5.84375 C 2.238281 -4.0625 2.796875 -2.679688 3.859375 -1.703125 C 4.898438 -0.722656 6.316406 -0.234375 8.109375 -0.234375 C 9.179688 -0.234375 10.050781 -0.617188 10.71875 -1.390625 C 11.382812 -2.171875 11.71875 -3.070312 11.71875 -4.09375 C 11.71875 -5.0625 11.441406 -5.890625 10.890625 -6.578125 C 10.648438 -6.890625 10.378906 -7.144531 10.078125 -7.34375 C 9.785156 -7.539062 9.550781 -7.664062 9.375 -7.71875 C 9.195312 -7.78125 8.9375 -7.859375 8.59375 -7.953125 C 6.363281 -8.484375 5.179688 -8.78125 5.046875 -8.84375 C 3.984375 -9.207031 3.128906 -9.84375 2.484375 -10.75 C 1.835938 -11.65625 1.515625 -12.664062 1.515625 -13.78125 C 1.515625 -15.21875 2.019531 -16.445312 3.03125 -17.46875 C 4.039062 -18.488281 5.285156 -19 6.765625 -19 C 7.503906 -19 8.179688 -18.882812 8.796875 -18.65625 C 9.410156 -18.425781 9.84375 -18.203125 10.09375 -17.984375 C 10.351562 -17.773438 10.679688 -17.484375 11.078125 -17.109375 L 12.015625 -18.65625 C 12.148438 -18.882812 12.285156 -19 12.421875 -19 C 12.566406 -19 12.648438 -18.957031 12.671875 -18.875 C 12.703125 -18.789062 12.71875 -18.617188 12.71875 -18.359375 L 12.71875 -12.9375 C 12.71875 -12.738281 12.710938 -12.601562 12.703125 -12.53125 C 12.703125 -12.457031 12.671875 -12.398438 12.609375 -12.359375 C 12.554688 -12.316406 12.476562 -12.296875 12.375 -12.296875 C 12.195312 -12.296875 12.085938 -12.398438 12.046875 -12.609375 C 11.546875 -16.359375 9.796875 -18.234375 6.796875 -18.234375 C 5.765625 -18.234375 4.910156 -17.890625 4.234375 -17.203125 C 3.566406 -16.515625 3.234375 -15.6875 3.234375 -14.71875 C 3.234375 -13.925781 3.476562 -13.207031 3.96875 -12.5625 C 4.46875 -11.914062 5.132812 -11.492188 5.96875 -11.296875 L 9.40625 -10.46875 C 10.5625 -10.195312 11.523438 -9.550781 12.296875 -8.53125 C 13.066406 -7.507812 13.453125 -6.335938 13.453125 -5.015625 C 13.453125 -3.484375 12.953125 -2.164062 11.953125 -1.0625 C 10.960938 0.0390625 9.691406 0.59375 8.140625 0.59375 C 7.023438 0.59375 6.035156 0.40625 5.171875 0.03125 C 4.304688 -0.332031 3.644531 -0.773438 3.1875 -1.296875 C 2.820312 -0.691406 2.523438 -0.222656 2.296875 0.109375 L 2.21875 0.234375 C 2.070312 0.472656 1.929688 0.59375 1.796875 0.59375 C 1.660156 0.59375 1.578125 0.546875 1.546875 0.453125 C 1.523438 0.367188 1.515625 0.203125 1.515625 -0.046875 Z M 1.515625 -0.046875 "/></g></g></g><g fill="#e6c068" fill-opacity="1"><g transform="translate(281.605676, 221.897804)"><g><path d="M 1.515625 -0.046875 L 1.515625 -5.453125 C 1.515625 -5.648438 1.519531 -5.785156 1.53125 -5.859375 C 1.539062 -5.929688 1.570312 -5.992188 1.625 -6.046875 C 1.675781 -6.097656 1.753906 -6.125 1.859375 -6.125 C 2.054688 -6.125 2.164062 -6.03125 2.1875 -5.84375 C 2.238281 -4.0625 2.796875 -2.679688 3.859375 -1.703125 C 4.898438 -0.722656 6.316406 -0.234375 8.109375 -0.234375 C 9.179688 -0.234375 10.050781 -0.617188 10.71875 -1.390625 C 11.382812 -2.171875 11.71875 -3.070312 11.71875 -4.09375 C 11.71875 -5.0625 11.441406 -5.890625 10.890625 -6.578125 C 10.648438 -6.890625 10.378906 -7.144531 10.078125 -7.34375 C 9.785156 -7.539062 9.550781 -7.664062 9.375 -7.71875 C 9.195312 -7.78125 8.9375 -7.859375 8.59375 -7.953125 C 6.363281 -8.484375 5.179688 -8.78125 5.046875 -8.84375 C 3.984375 -9.207031 3.128906 -9.84375 2.484375 -10.75 C 1.835938 -11.65625 1.515625 -12.664062 1.515625 -13.78125 C 1.515625 -15.21875 2.019531 -16.445312 3.03125 -17.46875 C 4.039062 -18.488281 5.285156 -19 6.765625 -19 C 7.503906 -19 8.179688 -18.882812 8.796875 -18.65625 C 9.410156 -18.425781 9.84375 -18.203125 10.09375 -17.984375 C 10.351562 -17.773438 10.679688 -17.484375 11.078125 -17.109375 L 12.015625 -18.65625 C 12.148438 -18.882812 12.285156 -19 12.421875 -19 C 12.566406 -19 12.648438 -18.957031 12.671875 -18.875 C 12.703125 -18.789062 12.71875 -18.617188 12.71875 -18.359375 L 12.71875 -12.9375 C 12.71875 -12.738281 12.710938 -12.601562 12.703125 -12.53125 C 12.703125 -12.457031 12.671875 -12.398438 12.609375 -12.359375 C 12.554688 -12.316406 12.476562 -12.296875 12.375 -12.296875 C 12.195312 -12.296875 12.085938 -12.398438 12.046875 -12.609375 C 11.546875 -16.359375 9.796875 -18.234375 6.796875 -18.234375 C 5.765625 -18.234375 4.910156 -17.890625 4.234375 -17.203125 C 3.566406 -16.515625 3.234375 -15.6875 3.234375 -14.71875 C 3.234375 -13.925781 3.476562 -13.207031 3.96875 -12.5625 C 4.46875 -11.914062 5.132812 -11.492188 5.96875 -11.296875 L 9.40625 -10.46875 C 10.5625 -10.195312 11.523438 -9.550781 12.296875 -8.53125 C 13.066406 -7.507812 13.453125 -6.335938 13.453125 -5.015625 C 13.453125 -3.484375 12.953125 -2.164062 11.953125 -1.0625 C 10.960938 0.0390625 9.691406 0.59375 8.140625 0.59375 C 7.023438 0.59375 6.035156 0.40625 5.171875 0.03125 C 4.304688 -0.332031 3.644531 -0.773438 3.1875 -1.296875 C 2.820312 -0.691406 2.523438 -0.222656 2.296875 0.109375 L 2.21875 0.234375 C 2.070312 0.472656 1.929688 0.59375 1.796875 0.59375 C 1.660156 0.59375 1.578125 0.546875 1.546875 0.453125 C 1.523438 0.367188 1.515625 0.203125 1.515625 -0.046875 Z M 1.515625 -0.046875 "/></g></g></g><g fill="#e6c068" fill-opacity="1"><g transform="translate(306.098631, 221.897804)"><g><path d="M 0.75 0 L 0.75 -0.828125 L 1.453125 -0.828125 C 2.460938 -0.828125 3.082031 -0.90625 3.3125 -1.0625 C 3.550781 -1.226562 3.671875 -1.578125 3.671875 -2.109375 L 3.671875 -16.3125 C 3.671875 -16.820312 3.550781 -17.15625 3.3125 -17.3125 C 3.082031 -17.476562 2.460938 -17.5625 1.453125 -17.5625 L 0.75 -17.5625 L 0.75 -18.40625 C 1.382812 -18.351562 2.757812 -18.328125 4.875 -18.328125 C 6.988281 -18.328125 8.351562 -18.351562 8.96875 -18.40625 L 8.96875 -17.5625 L 8.28125 -17.5625 C 7.269531 -17.5625 6.644531 -17.476562 6.40625 -17.3125 C 6.175781 -17.15625 6.0625 -16.820312 6.0625 -16.3125 L 6.0625 -2.109375 C 6.0625 -1.585938 6.175781 -1.242188 6.40625 -1.078125 C 6.644531 -0.910156 7.269531 -0.828125 8.28125 -0.828125 L 8.96875 -0.828125 L 8.96875 0 C 8.34375 -0.0507812 6.972656 -0.078125 4.859375 -0.078125 C 2.753906 -0.078125 1.382812 -0.0507812 0.75 0 Z M 0.75 0 "/></g></g></g><g fill="#e6c068" fill-opacity="1"><g transform="translate(325.367754, 221.897804)"><g><path d="M 1.515625 -9.21875 C 1.515625 -11.925781 2.4375 -14.234375 4.28125 -16.140625 C 6.132812 -18.046875 8.335938 -19 10.890625 -19 C 11.671875 -19 12.410156 -18.851562 13.109375 -18.5625 C 13.816406 -18.28125 14.332031 -18.015625 14.65625 -17.765625 C 14.976562 -17.515625 15.375 -17.15625 15.84375 -16.6875 L 17.203125 -18.671875 C 17.335938 -18.890625 17.476562 -19 17.625 -19 C 17.769531 -19 17.851562 -18.957031 17.875 -18.875 C 17.90625 -18.789062 17.921875 -18.617188 17.921875 -18.359375 L 17.921875 -11.96875 C 17.921875 -11.675781 17.898438 -11.492188 17.859375 -11.421875 C 17.828125 -11.347656 17.703125 -11.3125 17.484375 -11.3125 C 17.316406 -11.3125 17.210938 -11.335938 17.171875 -11.390625 C 17.128906 -11.441406 17.09375 -11.570312 17.0625 -11.78125 C 16.78125 -13.71875 16.101562 -15.265625 15.03125 -16.421875 C 13.957031 -17.578125 12.675781 -18.15625 11.1875 -18.15625 C 10.757812 -18.15625 10.304688 -18.109375 9.828125 -18.015625 C 9.347656 -17.921875 8.765625 -17.6875 8.078125 -17.3125 C 7.390625 -16.945312 6.78125 -16.457031 6.25 -15.84375 C 5.71875 -15.238281 5.257812 -14.359375 4.875 -13.203125 C 4.488281 -12.046875 4.296875 -10.707031 4.296875 -9.1875 C 4.296875 -7.675781 4.488281 -6.34375 4.875 -5.1875 C 5.257812 -4.03125 5.71875 -3.148438 6.25 -2.546875 C 6.78125 -1.941406 7.390625 -1.457031 8.078125 -1.09375 C 8.765625 -0.726562 9.347656 -0.492188 9.828125 -0.390625 C 10.316406 -0.285156 10.78125 -0.234375 11.21875 -0.234375 C 12.757812 -0.234375 14.117188 -0.78125 15.296875 -1.875 C 16.484375 -2.976562 17.132812 -4.453125 17.25 -6.296875 C 17.269531 -6.390625 17.28125 -6.453125 17.28125 -6.484375 C 17.28125 -6.523438 17.285156 -6.566406 17.296875 -6.609375 C 17.316406 -6.660156 17.347656 -6.691406 17.390625 -6.703125 C 17.441406 -6.722656 17.5 -6.734375 17.5625 -6.734375 C 17.800781 -6.734375 17.921875 -6.582031 17.921875 -6.28125 C 17.921875 -4.570312 17.265625 -3 15.953125 -1.5625 C 14.640625 -0.125 12.953125 0.59375 10.890625 0.59375 C 8.328125 0.59375 6.125 -0.351562 4.28125 -2.25 C 2.4375 -4.144531 1.515625 -6.46875 1.515625 -9.21875 Z M 1.515625 -9.21875 "/></g></g></g><g fill="#e6c068" fill-opacity="1"><g transform="translate(354.360836, 221.897804)"><g><path d="M 1.515625 -0.046875 L 1.515625 -5.453125 C 1.515625 -5.648438 1.519531 -5.785156 1.53125 -5.859375 C 1.539062 -5.929688 1.570312 -5.992188 1.625 -6.046875 C 1.675781 -6.097656 1.753906 -6.125 1.859375 -6.125 C 2.054688 -6.125 2.164062 -6.03125 2.1875 -5.84375 C 2.238281 -4.0625 2.796875 -2.679688 3.859375 -1.703125 C 4.898438 -0.722656 6.316406 -0.234375 8.109375 -0.234375 C 9.179688 -0.234375 10.050781 -0.617188 10.71875 -1.390625 C 11.382812 -2.171875 11.71875 -3.070312 11.71875 -4.09375 C 11.71875 -5.0625 11.441406 -5.890625 10.890625 -6.578125 C 10.648438 -6.890625 10.378906 -7.144531 10.078125 -7.34375 C 9.785156 -7.539062 9.550781 -7.664062 9.375 -7.71875 C 9.195312 -7.78125 8.9375 -7.859375 8.59375 -7.953125 C 6.363281 -8.484375 5.179688 -8.78125 5.046875 -8.84375 C 3.984375 -9.207031 3.128906 -9.84375 2.484375 -10.75 C 1.835938 -11.65625 1.515625 -12.664062 1.515625 -13.78125 C 1.515625 -15.21875 2.019531 -16.445312 3.03125 -17.46875 C 4.039062 -18.488281 5.285156 -19 6.765625 -19 C 7.503906 -19 8.179688 -18.882812 8.796875 -18.65625 C 9.410156 -18.425781 9.84375 -18.203125 10.09375 -17.984375 C 10.351562 -17.773438 10.679688 -17.484375 11.078125 -17.109375 L 12.015625 -18.65625 C 12.148438 -18.882812 12.285156 -19 12.421875 -19 C 12.566406 -19 12.648438 -18.957031 12.671875 -18.875 C 12.703125 -18.789062 12.71875 -18.617188 12.71875 -18.359375 L 12.71875 -12.9375 C 12.71875 -12.738281 12.710938 -12.601562 12.703125 -12.53125 C 12.703125 -12.457031 12.671875 -12.398438 12.609375 -12.359375 C 12.554688 -12.316406 12.476562 -12.296875 12.375 -12.296875 C 12.195312 -12.296875 12.085938 -12.398438 12.046875 -12.609375 C 11.546875 -16.359375 9.796875 -18.234375 6.796875 -18.234375 C 5.765625 -18.234375 4.910156 -17.890625 4.234375 -17.203125 C 3.566406 -16.515625 3.234375 -15.6875 3.234375 -14.71875 C 3.234375 -13.925781 3.476562 -13.207031 3.96875 -12.5625 C 4.46875 -11.914062 5.132812 -11.492188 5.96875 -11.296875 L 9.40625 -10.46875 C 10.5625 -10.195312 11.523438 -9.550781 12.296875 -8.53125 C 13.066406 -7.507812 13.453125 -6.335938 13.453125 -5.015625 C 13.453125 -3.484375 12.953125 -2.164062 11.953125 -1.0625 C 10.960938 0.0390625 9.691406 0.59375 8.140625 0.59375 C 7.023438 0.59375 6.035156 0.40625 5.171875 0.03125 C 4.304688 -0.332031 3.644531 -0.773438 3.1875 -1.296875 C 2.820312 -0.691406 2.523438 -0.222656 2.296875 0.109375 L 2.21875 0.234375 C 2.070312 0.472656 1.929688 0.59375 1.796875 0.59375 C 1.660156 0.59375 1.578125 0.546875 1.546875 0.453125 C 1.523438 0.367188 1.515625 0.203125 1.515625 -0.046875 Z M 1.515625 -0.046875 "/></g></g></g></svg>